<?xml version="1.0" standalone="no"?><!DOCTYPE svg PUBLIC "-//W3C//DTD SVG 1.1//EN" "http://www.w3.org/Graphics/SVG/1.1/DTD/svg11.dtd"><svg t="1712153927074" class="icon" viewBox="0 0 1203 1024" version="1.1" xmlns="http://www.w3.org/2000/svg" p-id="9041" xmlns:xlink="http://www.w3.org/1999/xlink" width="56.390625" height="48"><path d="M973.958042 325.233152a44.326948 44.326948 0 1 0 22.163474-38.406134 44.326948 44.326948 0 0 0-22.163474 38.406134z m0 0M239.286366 37.107988a23.619931 23.619931 0 1 0 23.619931-23.619931 23.619931 23.619931 0 0 0-23.619931 23.619931z m0 0M0 713.157275c0 171.671939 139.170787 310.842725 310.826894 310.842725s310.842725-139.170787 310.842726-310.842725-139.154956-310.874387-310.842726-310.874388S0 541.485336 0 713.157275z m0 0" fill="#E1F9FF" p-id="9042"></path><path d="M1139.756659 672.4873h-64.05244V480.34581c0-19.203067-12.807322-32.02622-32.02622-32.026221H659.41085v-128.089049h64.036609a64.226582 64.226582 0 0 0 64.004947-64.03661V64.05244A64.242413 64.242413 0 0 0 723.399966 0H531.3218a64.242413 64.242413 0 0 0-64.05244 64.05244v192.14149a64.226582 64.226582 0 0 0 64.05244 64.03661h64.036609v128.089049H211.09126c-19.218898 0-32.02622 12.823153-32.02622 32.026221v192.14149H115.028431a64.242413 64.242413 0 0 0-64.05244 64.05244v192.125659a64.242413 64.242413 0 0 0 64.05244 64.115765h192.14149a64.226582 64.226582 0 0 0 64.036609-64.052441v-192.188983a64.226582 64.226582 0 0 0-64.036609-64.05244h-64.05244V512.37203h352.240928v160.11527h-64.036609a64.242413 64.242413 0 0 0-64.05244 64.05244v192.125659a64.242413 64.242413 0 0 0 64.05244 64.115765h192.125659a64.242413 64.242413 0 0 0 64.004947-64.115765V736.53974a64.226582 64.226582 0 0 0-64.05244-64.05244h-63.989116V512.37203h352.25676v160.11527h-64.052441a64.226582 64.226582 0 0 0-64.036609 64.05244v192.125659a64.226582 64.226582 0 0 0 64.036609 64.115765h192.14149a64.226582 64.226582 0 0 0 64.052441-64.115765V736.53974a64.226582 64.226582 0 0 0-64.03661-64.05244z m-608.434859-416.356694V64.05244h192.125659v192.14149zM307.169921 928.665399H115.028431V736.53974h192.14149z m416.356693-192.125659v192.125659H531.3218V736.53974z m224.088555 192.125659V736.53974h192.14149v192.125659z m0 0" fill="#40C4FF" p-id="9043"></path></svg>